<svg width="560" height="660" viewBox="0 0 560 660" xmlns="http://www.w3.org/2000/svg">
  <rect width="560" height="660" rx="28" fill="#17B5AE"/>
  <g opacity="0.15" fill="#FFFFFF">
    <path d="M395 120c-40 30-65 70-60 110 6 52 61 71 74 116 9 31 0 67-14 88-24 36-67 54-105 63-41 9-76 9-110-10-34-18-67-55-70-97-3-43 25-89 65-119 39-29 90-41 132-54 41-12 73-25 88-45z"/>
  </g>
  <g fill="#FF6B6B">
    <circle cx="420" cy="180" r="16"/>
    <circle cx="390" cy="330" r="16"/>
    <circle cx="440" cy="480" r="16"/>
  </g>
</svg>
